<svg xmlns="http://www.w3.org/2000/svg" width="24" height="24" fill="none" viewBox="0 0 24 24">
<!-- SVG created with Arrow, by QuiverAI (https://quiver.ai) -->
  <g clip-path="url(#clip0_1118_7196)">
    <rect width="24" height="24" rx="12" fill="#FDFDFC"/>
    <mask id="mask0_1118_7196" x="0" y="0" width="24" height="24" style="mask-type:alpha" maskUnits="userSpaceOnUse">
      <path d="m24 12c0 6.63-5.37 12-12 12s-12-5.37-12-12 5.37-12 12-12 12 5.37 12 12z" fill="#2A7CE0"/>
    </mask>
    <g mask="url(#mask0_1118_7196)">
      <path d="m24 0h-24v24h24v-24z" fill="#5C96DC"/>
      <path d="m23.26 8.12-0.65-0.9-0.86-0.56-0.44-1.29-1.02-0.64-0.63-1.25-1.28-0.77-0.95-1-1.58-0.6-1.78-0.45-1.62-0.66h-0.9l-1.62 0.66-1.78 0.45-1.58 0.6-0.95 1-1.28 0.77-0.63 1.25-1.02 0.64-0.44 1.29-0.86 0.56-0.65 0.9-0.74 1.76v4.21l0.81 2.5 1.37 2.32 1.74 1.94 1.99 1.44 2.21 1.13 2.12 0.58h3.52l2.12-0.58 2.21-1.13 1.99-1.44 1.74-1.94 1.37-2.32 0.81-2.5v-4.21l-0.74-1.76z" fill="#5C96DC"/>
      <path d="m12.2 6.76h-1.61l-1.44 0.65-5.83 6.3-0.46 1.44 0.91 1.51 1.69 0.72 1.45-0.72 7.61-7.97-0.33-0.58-1.99-1.35z" fill="#4687D8"/>
      <path d="m12.2 7.35h-1.54l-1.32 0.69-5.83 6.17-0.06 1.2 0.72 1.25 1.45 0.52 1.22-0.72 7.61-7.77-0.33-0.39-1.92-0.95z" fill="#F9FEFF"/>
      <path d="m18.71 6.43-1.45 0.72-7.55 8.1v0.52l1.28 0.85h2.54l1.51-0.91 5.63-5.7 0.26-1.32-0.84-1.34-1.38-0.92z" fill="#4687D8"/>
      <path d="m18.58 6.76-1.25 0.78-7.62 7.78 0.33 0.58 1.21 0.62h2.09l1.51-0.81 5.7-5.96-0.14-1.64-1.83-1.35z" fill="#F9FEFF"/>
      <path d="m10.01 8.26 0.48-0.22h1.82l0.54 0.31-0.22 0.34h-2.21l-0.41-0.43z" fill="#F0F9FF"/>
      <path d="m11.05 15.71 0.4-0.39h1.89l0.39 0.39-0.39 0.52h-1.83l-0.46-0.52z" fill="#F0F9FF"/>
      <path d="m18.09 7.71 0.33-0.3 1.38 0.7 0.26 0.58-0.19 0.26h-2.15l-0.26-0.45 0.63-0.79z" fill="#F0F9FF"/>
    </g>
  </g>
  <defs>
    <clipPath id="clip0_1118_7196">
      <rect width="24" height="24" fill="#fff"/>
    </clipPath>
  </defs>
</svg>